<svg width="688" height="688" xmlns="http://www.w3.org/2000/svg" xmlns:xlink="http://www.w3.org/1999/xlink" xml:space="preserve" overflow="hidden"><g transform="translate(-592 -312)"><path d="M942.744 405.167C975.131 404.97 1003.02 427.983 1008.96 459.82 1008.96 459.87 1009.03 459.898 1009.07 459.863 1021.11 450.737 1035.79 445.777 1050.9 445.73 1088.18 445.848 1118.38 476.053 1118.48 513.34 1118.52 518.553 1117.85 523.746 1116.49 528.777 1116.48 528.816 1116.51 528.855 1116.55 528.863 1116.56 528.865 1116.57 528.865 1116.58 528.863 1121.9 527.467 1127.39 526.796 1132.89 526.871 1170.23 527.412 1200.05 558.118 1199.51 595.454 1198.98 632.37 1168.93 662.031 1132.01 662.084 1122.72 661.832 1113.57 659.78 1105.06 656.043 1105.03 656.027 1104.99 656.039 1104.97 656.072 1104.97 656.082 1104.97 656.095 1104.97 656.107L1104.97 660.666C1105.26 696.311 1078.18 726.227 1042.68 729.465 1019.48 731.369 996.986 720.977 983.4 702.082 983.378 702.054 983.337 702.049 983.309 702.072 983.296 702.083 983.287 702.1 983.286 702.117 979.763 739.363 946.715 766.701 909.47 763.178 874.73 759.893 848.17 730.755 848.108 695.861 848.102 693.421 848.319 690.987 848.753 688.587 848.769 688.559 848.759 688.524 848.732 688.508 848.704 688.492 848.668 688.502 848.653 688.53 819.343 711.26 777.157 705.927 754.426 676.617 746.622 666.554 741.839 654.48 740.637 641.803L739.956 641.803C702.616 641.748 672.389 611.435 672.444 574.094 672.497 537.174 702.158 507.124 739.074 506.589 744.576 506.513 750.064 507.184 755.386 508.582 755.428 508.59 755.47 508.563 755.479 508.521 755.481 508.51 755.481 508.499 755.479 508.488 754.281 503.913 753.615 499.213 753.494 494.485 752.588 457.291 782.005 426.404 819.201 425.498 842.431 424.932 864.313 436.38 877.097 455.785 877.114 455.816 877.152 455.829 877.184 455.813 877.196 455.806 877.205 455.797 877.212 455.785 885.304 426.173 912.048 405.515 942.744 405.167M942.744 390.833C914.311 391.026 887.978 405.837 873.048 430.035 858.475 417.834 840.081 411.138 821.075 411.115 776.157 411.171 739.636 447.34 739.146 492.256 693.888 492.743 657.595 529.826 658.082 575.084 658.517 615.541 688.412 649.626 728.468 655.333 739.404 698.967 783.642 725.473 827.275 714.537 830.018 713.849 832.723 713.019 835.38 712.05 844.369 756.474 887.669 785.198 932.091 776.209 958.052 770.956 979.882 753.495 990.71 729.322 1004.35 738.966 1020.67 744.107 1037.37 744.028 1077.61 743.979 1111.87 714.763 1118.28 675.042 1122.8 675.94 1127.4 676.401 1132.01 676.418 1177.26 676.282 1213.84 639.485 1213.71 594.229 1213.57 549.48 1177.56 513.114 1132.82 512.538 1132.33 467.625 1095.81 431.457 1050.9 431.397 1039.33 431.416 1027.89 433.835 1017.31 438.499 1004.02 409.303 974.82 390.636 942.744 390.833Z" fill="#FFFFFF"/><path d="M799.833 777.962C815.665 777.962 828.5 790.797 828.5 806.629 828.5 822.461 815.665 835.296 799.833 835.296 784.001 835.296 771.167 822.461 771.167 806.629 771.19 790.806 784.011 777.986 799.833 777.962M799.833 763.629C776.085 763.629 756.833 782.881 756.833 806.629 756.833 830.377 776.085 849.629 799.833 849.629 823.582 849.629 842.833 830.377 842.833 806.629 842.833 782.881 823.582 763.629 799.833 763.629Z" fill="#FFFFFF"/><path d="M713.833 863.984C723.728 863.984 731.75 872.005 731.75 881.901 731.75 891.796 723.728 899.817 713.833 899.817 703.938 899.817 695.917 891.796 695.917 881.901 695.917 872.005 703.938 863.984 713.833 863.984M713.833 849.651C696.022 849.651 681.583 864.089 681.583 881.901 681.583 899.712 696.022 914.151 713.833 914.151 731.645 914.151 746.083 899.712 746.083 881.901 746.083 864.089 731.645 849.651 713.833 849.651Z" fill="#FFFFFF"/></g></svg>